<mxfile type="github" version="13.6.2" host="app.diagrams.net" modified="2020-08-09T03:26:53.653Z" agent="5.0 (Windows NT 10.0; Win64; x64) AppleWebKit/537.36 (KHTML, like Gecko) Chrome/64.0.3282.140 Safari/537.36 Edge/18.17763" etag="CTb2iXole_38jKssrcZ4">
  <diagram id="kIdTxl3lRmmI0DEkiHDy" name="Page-1">
    <mxGraphModel grid="1" dx="1102" dy="608" gridSize="10" guides="1" tooltips="1" connect="1" arrows="1" fold="1" page="1" pageScale="1" pageWidth="850" pageHeight="1100" math="0" shadow="0">
      <root>
        <mxCell id="0" />
        <mxCell id="1" parent="0" />
        <mxCell id="sJjsMxy5po6ftO6I52qX-3" source="sJjsMxy5po6ftO6I52qX-1" value="" parent="1" style="edgeStyle=orthogonalEdgeStyle;rounded=0;orthogonalLoop=1;jettySize=auto;html=1;" edge="1" target="sJjsMxy5po6ftO6I52qX-2">
          <mxGeometry as="geometry" relative="1" />
        </mxCell>
        <mxCell id="sJjsMxy5po6ftO6I52qX-1" value="Material App" parent="1" style="rounded=1;whiteSpace=wrap;html=1;" vertex="1">
          <mxGeometry as="geometry" x="360" y="20" width="120" height="60" />
        </mxCell>
        <mxCell id="sJjsMxy5po6ftO6I52qX-5" source="sJjsMxy5po6ftO6I52qX-2" value="" parent="1" style="edgeStyle=orthogonalEdgeStyle;rounded=0;orthogonalLoop=1;jettySize=auto;html=1;" edge="1" target="sJjsMxy5po6ftO6I52qX-4">
          <mxGeometry as="geometry" relative="1" />
        </mxCell>
        <mxCell id="sJjsMxy5po6ftO6I52qX-7" source="sJjsMxy5po6ftO6I52qX-2" value="" parent="1" style="edgeStyle=orthogonalEdgeStyle;rounded=0;orthogonalLoop=1;jettySize=auto;html=1;" edge="1" target="sJjsMxy5po6ftO6I52qX-6">
          <mxGeometry as="geometry" relative="1" />
        </mxCell>
        <mxCell id="sJjsMxy5po6ftO6I52qX-2" value="Scaffold" parent="1" style="whiteSpace=wrap;html=1;rounded=1;" vertex="1">
          <mxGeometry as="geometry" x="360" y="150" width="120" height="60" />
        </mxCell>
        <mxCell id="sJjsMxy5po6ftO6I52qX-9" source="sJjsMxy5po6ftO6I52qX-4" value="" parent="1" style="edgeStyle=orthogonalEdgeStyle;rounded=0;orthogonalLoop=1;jettySize=auto;html=1;" edge="1" target="sJjsMxy5po6ftO6I52qX-8">
          <mxGeometry as="geometry" relative="1" />
        </mxCell>
        <mxCell id="sJjsMxy5po6ftO6I52qX-11" source="sJjsMxy5po6ftO6I52qX-4" value="" parent="1" style="edgeStyle=orthogonalEdgeStyle;rounded=0;orthogonalLoop=1;jettySize=auto;html=1;" edge="1" target="sJjsMxy5po6ftO6I52qX-10">
          <mxGeometry as="geometry" relative="1" />
        </mxCell>
        <mxCell id="sJjsMxy5po6ftO6I52qX-4" value="App Bar" parent="1" style="whiteSpace=wrap;html=1;rounded=1;" vertex="1">
          <mxGeometry as="geometry" x="190" y="230" width="120" height="60" />
        </mxCell>
        <mxCell id="sJjsMxy5po6ftO6I52qX-13" source="sJjsMxy5po6ftO6I52qX-6" value="" parent="1" style="edgeStyle=orthogonalEdgeStyle;rounded=0;orthogonalLoop=1;jettySize=auto;html=1;" edge="1" target="sJjsMxy5po6ftO6I52qX-12">
          <mxGeometry as="geometry" relative="1" />
        </mxCell>
        <mxCell id="sJjsMxy5po6ftO6I52qX-6" value="Body" parent="1" style="whiteSpace=wrap;html=1;rounded=1;" vertex="1">
          <mxGeometry as="geometry" x="550" y="230" width="120" height="60" />
        </mxCell>
        <mxCell id="sJjsMxy5po6ftO6I52qX-8" value="Title" parent="1" style="whiteSpace=wrap;html=1;rounded=1;" vertex="1">
          <mxGeometry as="geometry" x="60" y="340" width="120" height="60" />
        </mxCell>
        <mxCell id="sJjsMxy5po6ftO6I52qX-10" value="Color" parent="1" style="whiteSpace=wrap;html=1;rounded=1;" vertex="1">
          <mxGeometry as="geometry" x="190" y="340" width="120" height="60" />
        </mxCell>
        <mxCell id="sJjsMxy5po6ftO6I52qX-15" source="sJjsMxy5po6ftO6I52qX-12" value="" parent="1" style="edgeStyle=orthogonalEdgeStyle;rounded=0;orthogonalLoop=1;jettySize=auto;html=1;" edge="1" target="sJjsMxy5po6ftO6I52qX-14">
          <mxGeometry as="geometry" relative="1" />
        </mxCell>
        <mxCell id="sJjsMxy5po6ftO6I52qX-17" source="sJjsMxy5po6ftO6I52qX-12" value="" parent="1" style="edgeStyle=orthogonalEdgeStyle;rounded=0;orthogonalLoop=1;jettySize=auto;html=1;" edge="1" target="sJjsMxy5po6ftO6I52qX-16">
          <mxGeometry as="geometry" relative="1" />
        </mxCell>
        <mxCell id="sJjsMxy5po6ftO6I52qX-12" value="Row" parent="1" style="whiteSpace=wrap;html=1;rounded=1;" vertex="1">
          <mxGeometry as="geometry" x="550" y="330" width="120" height="60" />
        </mxCell>
        <mxCell id="sJjsMxy5po6ftO6I52qX-14" value="Dice 1 Image" parent="1" style="whiteSpace=wrap;html=1;rounded=1;" vertex="1">
          <mxGeometry as="geometry" x="425" y="430" width="120" height="60" />
        </mxCell>
        <mxCell id="sJjsMxy5po6ftO6I52qX-16" value="Dice 1 image" parent="1" style="whiteSpace=wrap;html=1;rounded=1;" vertex="1">
          <mxGeometry as="geometry" x="680" y="420" width="120" height="60" />
        </mxCell>
      </root>
    </mxGraphModel>
  </diagram>
</mxfile>
